<svg width="25" height="24" viewBox="0 0 25 24" fill="none" xmlns="http://www.w3.org/2000/svg">
<mask id="mask0_229_3821" style="mask-type:alpha" maskUnits="userSpaceOnUse" x="0" y="0" width="25" height="24">
<rect x="0.5" width="24" height="24" fill="#D9D9D9"/>
</mask>
<g mask="url(#mask0_229_3821)">
<path d="M12.5 18.1137L8.53075 19.836C7.92825 20.0965 7.35583 20.0466 6.8135 19.6864C6.27117 19.3262 6 18.8195 6 18.1663V5.82746C6 5.31678 6.175 4.88454 6.525 4.53072C6.875 4.17691 7.30258 4 7.80775 4H17.1923C17.6974 4 18.125 4.17691 18.475 4.53072C18.825 4.88454 19 5.31678 19 5.82746V18.1663C19 18.8195 18.7288 19.3262 18.1865 19.6864C17.6442 20.0466 17.0718 20.0965 16.4693 19.836L12.5 18.1137Z" fill="#BC58E3"/>
</g>
</svg>
