<svg width="24" height="25" viewBox="0 0 24 25" fill="none" xmlns="http://www.w3.org/2000/svg">
<mask id="mask0_229_3820" style="mask-type:alpha" maskUnits="userSpaceOnUse" x="0" y="0" width="24" height="25">
<rect y="0.972656" width="24" height="24" fill="#D9D9D9"/>
</mask>
<g mask="url(#mask0_229_3820)">
<path d="M12 19.0864L8.03075 20.8087C7.42825 21.0692 6.85583 21.0193 6.3135 20.6591C5.77117 20.2989 5.5 19.7921 5.5 19.1389V6.80011C5.5 6.28944 5.675 5.8572 6.025 5.50338C6.375 5.14956 6.80258 4.97266 7.30775 4.97266H16.6923C17.1974 4.97266 17.625 5.14956 17.975 5.50338C18.325 5.8572 18.5 6.28944 18.5 6.80011V19.1389C18.5 19.7921 18.2288 20.2989 17.6865 20.6591C17.1442 21.0193 16.5718 21.0692 15.9693 20.8087L12 19.0864ZM12 17.4068L16.5673 19.3955C16.6699 19.4408 16.7677 19.4311 16.8605 19.3664C16.9535 19.3015 17 19.214 17 19.1038V6.80011C17 6.72228 16.9679 6.65101 16.9038 6.58631C16.8398 6.52144 16.7692 6.48901 16.6923 6.48901H7.30775C7.23075 6.48901 7.16025 6.52144 7.09625 6.58631C7.03208 6.65101 7 6.72228 7 6.80011V19.1038C7 19.214 7.0465 19.3015 7.1395 19.3664C7.23233 19.4311 7.33008 19.4408 7.43275 19.3955L12 17.4068Z" fill="#BC58E3"/>
</g>
</svg>
