<svg width="24" height="24" viewBox="0 0 24 24" fill="none" xmlns="http://www.w3.org/2000/svg">
<mask id="mask0_229_3822" style="mask-type:alpha" maskUnits="userSpaceOnUse" x="0" y="0" width="24" height="24">
<rect width="24" height="24" fill="#D9D9D9"/>
</mask>
<g mask="url(#mask0_229_3822)">
<path d="M7.06672 21C6.62891 21 6.25833 20.8448 5.955 20.5343C5.65167 20.2238 5.5 19.8446 5.5 19.3965V10.185C5.5 9.73691 5.65167 9.35762 5.955 9.04716C6.25833 8.7367 6.62891 8.58147 7.06672 8.58147H8.63343C8.81774 8.58147 8.97216 8.64518 9.09667 8.77262C9.22103 8.89991 9.28322 9.05795 9.28322 9.24674C9.28322 9.43554 9.22103 9.59358 9.09667 9.72087C8.97216 9.8483 8.81774 9.91202 8.63343 9.91202H7.06672C6.99998 9.91202 6.93888 9.94048 6.88342 9.9974C6.82781 10.0542 6.8 10.1167 6.8 10.185V19.3965C6.8 19.4648 6.82781 19.5273 6.88342 19.5841C6.93888 19.641 6.99998 19.6694 7.06672 19.6694H16.9333C17 19.6694 17.0611 19.641 17.1166 19.5841C17.1722 19.5273 17.2 19.4648 17.2 19.3965V10.185C17.2 10.1167 17.1722 10.0542 17.1166 9.9974C17.0611 9.94048 17 9.91202 16.9333 9.91202H15.3666C15.1823 9.91202 15.0278 9.8483 14.9033 9.72087C14.779 9.59358 14.7168 9.43554 14.7168 9.24674C14.7168 9.05795 14.779 8.89991 14.9033 8.77262C15.0278 8.64518 15.1823 8.58147 15.3666 8.58147H16.9333C17.3711 8.58147 17.7417 8.7367 18.045 9.04716C18.3483 9.35762 18.5 9.73691 18.5 10.185V19.3965C18.5 19.8446 18.3483 20.2238 18.045 20.5343C17.7417 20.8448 17.3711 21 16.9333 21H7.06672ZM11.35 5.2278L10.2034 6.40135C10.0744 6.53337 9.92354 6.59849 9.75078 6.59672C9.57803 6.59509 9.42441 6.52546 9.28993 6.38782C9.16441 6.25018 9.09941 6.09436 9.09493 5.92035C9.0906 5.74634 9.1556 5.59059 9.28993 5.4531L11.4516 3.24061C11.6083 3.0802 11.7911 3 12 3C12.2089 3 12.3917 3.0802 12.5484 3.24061L14.7101 5.4531C14.83 5.57581 14.8913 5.72786 14.8942 5.90926C14.897 6.09066 14.8356 6.25018 14.7101 6.38782C14.5756 6.52546 14.4211 6.59428 14.2466 6.59428C14.0723 6.59428 13.9179 6.52546 13.7834 6.38782L12.65 5.2278V14.3472C12.65 14.536 12.5877 14.694 12.4632 14.8213C12.3389 14.9488 12.1845 15.0125 12 15.0125C11.8155 15.0125 11.6611 14.9488 11.5368 14.8213C11.4123 14.694 11.35 14.536 11.35 14.3472V9.78751V5.2278Z" fill="#BC58E3"/>
</g>
</svg>
