<svg width="25" height="25" viewBox="0 0 25 25" fill="none" xmlns="http://www.w3.org/2000/svg">
<path d="M12.5 10.5839L8.42701 14.6571C8.28851 14.7955 8.11443 14.8663 7.90476 14.8696C7.69526 14.8728 7.51801 14.802 7.37301 14.6571C7.22818 14.5121 7.15576 14.3365 7.15576 14.1301C7.15576 13.9238 7.22818 13.7481 7.37301 13.6031L11.8673 9.10889C12.0481 8.92822 12.259 8.83789 12.5 8.83789C12.741 8.83789 12.9519 8.92822 13.1328 9.10889L17.627 13.6031C17.7653 13.7416 17.8362 13.9157 17.8395 14.1254C17.8427 14.3349 17.7718 14.5121 17.627 14.6571C17.482 14.802 17.3063 14.8744 17.1 14.8744C16.8937 14.8744 16.718 14.802 16.573 14.6571L12.5 10.5839Z" fill="#191919"/>
</svg>
