<svg width="25" height="25" viewBox="0 0 25 25" fill="none" xmlns="http://www.w3.org/2000/svg">
<mask id="mask0_153_912" style="mask-type:alpha" maskUnits="userSpaceOnUse" x="0" y="0" width="25" height="25">
<rect x="0.747498" y="0.629883" width="24" height="24" fill="#D9D9D9"/>
</mask>
<g mask="url(#mask0_153_912)">
<path d="M7.05531 21.1299C6.55814 21.1299 6.13256 20.9529 5.77856 20.5989C5.42456 20.2449 5.24756 19.8193 5.24756 19.3221V10.7836C5.24756 10.4975 5.31156 10.2264 5.43956 9.97039C5.56773 9.71423 5.74473 9.50331 5.97056 9.33764L11.6631 5.05889C11.9789 4.81773 12.3399 4.69714 12.7461 4.69714C13.1522 4.69714 13.5142 4.81773 13.8321 5.05889L19.5246 9.33764C19.7504 9.50331 19.9274 9.71423 20.0556 9.97039C20.1836 10.2264 20.2476 10.4975 20.2476 10.7836V19.3221C20.2476 19.8193 20.0706 20.2449 19.7166 20.5989C19.3626 20.9529 18.937 21.1299 18.4398 21.1299H7.05531Z" fill="#2769FF"/>
</g>
</svg>
