<svg width="25" height="25" viewBox="0 0 25 25" fill="none" xmlns="http://www.w3.org/2000/svg">
<mask id="mask0_153_913" style="mask-type:alpha" maskUnits="userSpaceOnUse" x="0" y="0" width="25" height="25">
<rect x="0.747498" y="0.629883" width="24" height="24" fill="#D9D9D9"/>
</mask>
<g mask="url(#mask0_153_913)">
<path d="M7.05531 21.1299C6.55814 21.1299 6.13256 20.9529 5.77856 20.5989C5.42456 20.2449 5.24756 19.8193 5.24756 19.3221V10.7836C5.24756 10.4975 5.31156 10.2264 5.43956 9.97038C5.56773 9.71421 5.74473 9.5033 5.97056 9.33763L11.6631 5.05888C11.9789 4.81771 12.3399 4.69713 12.7461 4.69713C13.1522 4.69713 13.5142 4.81771 13.8321 5.05888L19.5246 9.33763C19.7504 9.5033 19.9274 9.71421 20.0556 9.97038C20.1836 10.2264 20.2476 10.4975 20.2476 10.7836V19.3221C20.2476 19.8193 20.0706 20.2449 19.7166 20.5989C19.3626 20.9529 18.937 21.1299 18.4398 21.1299H7.05531ZM7.05531 19.6299H18.4398C18.5296 19.6299 18.6034 19.601 18.6611 19.5434C18.7187 19.4857 18.7476 19.412 18.7476 19.3221V10.7836C18.7476 10.7325 18.7363 10.686 18.7138 10.6444C18.6915 10.6027 18.6611 10.5658 18.6226 10.5336L12.9303 6.26463C12.879 6.21963 12.8181 6.19713 12.7476 6.19713C12.6771 6.19713 12.6161 6.21963 12.5648 6.26463L6.87256 10.5336C6.83406 10.5658 6.80364 10.6027 6.78131 10.6444C6.75881 10.686 6.74756 10.7325 6.74756 10.7836V19.3221C6.74756 19.412 6.77639 19.4857 6.83406 19.5434C6.89173 19.601 6.96548 19.6299 7.05531 19.6299Z" fill="#A3A1A1"/>
</g>
</svg>
