<svg width="25" height="25" viewBox="0 0 25 25" fill="none" xmlns="http://www.w3.org/2000/svg">
<mask id="mask0_153_919" style="mask-type:alpha" maskUnits="userSpaceOnUse" x="0" y="0" width="25" height="25">
<rect x="0.0804443" y="0.629883" width="24" height="24" fill="#D9D9D9"/>
</mask>
<g mask="url(#mask0_153_919)">
<path d="M12.0804 12.3221C11.1179 12.3221 10.294 11.9795 9.60869 11.2941C8.92319 10.6086 8.58044 9.78463 8.58044 8.82213C8.58044 7.85963 8.92319 7.03571 9.60869 6.35038C10.294 5.66488 11.1179 5.32213 12.0804 5.32213C13.0429 5.32213 13.8669 5.66488 14.5522 6.35038C15.2377 7.03571 15.5804 7.85963 15.5804 8.82213C15.5804 9.78463 15.2377 10.6086 14.5522 11.2941C13.8669 11.9795 13.0429 12.3221 12.0804 12.3221ZM4.58044 18.4184V17.7144C4.58044 17.2247 4.71344 16.7712 4.97944 16.3539C5.24544 15.9365 5.60094 15.6157 6.04594 15.3914C7.03428 14.9069 8.03136 14.5435 9.03719 14.3011C10.043 14.0588 11.0574 13.9376 12.0804 13.9376C13.1034 13.9376 14.1179 14.0588 15.1237 14.3011C16.1295 14.5435 17.1266 14.9069 18.1149 15.3914C18.5599 15.6157 18.9154 15.9365 19.1814 16.3539C19.4474 16.7712 19.5804 17.2247 19.5804 17.7144V18.4184C19.5804 18.84 19.4327 19.1987 19.1372 19.4944C18.8417 19.7899 18.483 19.9376 18.0612 19.9376H6.09969C5.67786 19.9376 5.31919 19.7899 5.02369 19.4944C4.72819 19.1987 4.58044 18.84 4.58044 18.4184ZM6.08044 18.4376H18.0804V17.7144C18.0804 17.5119 18.0218 17.3244 17.9044 17.1519C17.7871 16.9795 17.6279 16.8389 17.4267 16.7299C16.565 16.3055 15.6865 15.984 14.7912 15.7654C13.8957 15.5469 12.9921 15.4376 12.0804 15.4376C11.1688 15.4376 10.2652 15.5469 9.36969 15.7654C8.47436 15.984 7.59586 16.3055 6.73419 16.7299C6.53303 16.8389 6.37378 16.9795 6.25644 17.1519C6.13911 17.3244 6.08044 17.5119 6.08044 17.7144V18.4376ZM12.0804 10.8221C12.6304 10.8221 13.1013 10.6263 13.4929 10.2346C13.8846 9.84296 14.0804 9.37213 14.0804 8.82213C14.0804 8.27213 13.8846 7.8013 13.4929 7.40963C13.1013 7.01796 12.6304 6.82213 12.0804 6.82213C11.5304 6.82213 11.0596 7.01796 10.6679 7.40963C10.2763 7.8013 10.0804 8.27213 10.0804 8.82213C10.0804 9.37213 10.2763 9.84296 10.6679 10.2346C11.0596 10.6263 11.5304 10.8221 12.0804 10.8221Z" fill="#A3A1A1"/>
</g>
</svg>
