<svg width="25" height="25" viewBox="0 0 25 25" fill="none" xmlns="http://www.w3.org/2000/svg">
<mask id="mask0_153_918" style="mask-type:alpha" maskUnits="userSpaceOnUse" x="0" y="0" width="25" height="25">
<rect x="0.0804443" y="0.629883" width="24" height="24" fill="#D9D9D9"/>
</mask>
<g mask="url(#mask0_153_918)">
<path d="M12.0804 12.3221C11.1151 12.3221 10.2904 11.9801 9.60644 11.2961C8.92244 10.6123 8.58044 9.78764 8.58044 8.82214C8.58044 7.85681 8.92244 7.03214 9.60644 6.34814C10.2904 5.66414 11.1151 5.32214 12.0804 5.32214C13.0458 5.32214 13.8704 5.66414 14.5544 6.34814C15.2384 7.03214 15.5804 7.85681 15.5804 8.82214C15.5804 9.78764 15.2384 10.6123 14.5544 11.2961C13.8704 11.9801 13.0458 12.3221 12.0804 12.3221ZM4.58044 18.4184V17.7144C4.58044 17.2247 4.71344 16.7712 4.97944 16.3539C5.24544 15.9366 5.60094 15.6157 6.04594 15.3914C7.03428 14.9069 8.03136 14.5435 9.03719 14.3011C10.043 14.0588 11.0574 13.9376 12.0804 13.9376C13.1034 13.9376 14.1179 14.0588 15.1237 14.3011C16.1295 14.5435 17.1266 14.9069 18.1149 15.3914C18.5599 15.6157 18.9154 15.9366 19.1814 16.3539C19.4474 16.7712 19.5804 17.2247 19.5804 17.7144V18.4184C19.5804 18.8401 19.4327 19.1987 19.1372 19.4944C18.8417 19.7899 18.483 19.9376 18.0612 19.9376H6.09969C5.67786 19.9376 5.31919 19.7899 5.02369 19.4944C4.72819 19.1987 4.58044 18.8401 4.58044 18.4184Z" fill="#2769FF"/>
</g>
</svg>
