<svg width="25" height="25" viewBox="0 0 25 25" fill="none" xmlns="http://www.w3.org/2000/svg">
<mask id="mask0_153_917" style="mask-type:alpha" maskUnits="userSpaceOnUse" x="0" y="0" width="25" height="25">
<rect x="0.302734" y="0.629883" width="24" height="24" fill="#D9D9D9"/>
</mask>
<g mask="url(#mask0_153_917)">
<path d="M4.61048 21.1299C4.10532 21.1299 3.67773 20.9549 3.32773 20.6049C2.97773 20.2549 2.80273 19.8273 2.80273 19.3221V5.93763C2.80273 5.43247 2.97773 5.00488 3.32773 4.65488C3.67773 4.30488 4.10532 4.12988 4.61048 4.12988H19.995C20.5002 4.12988 20.9277 4.30488 21.2777 4.65488C21.6277 5.00488 21.8027 5.43247 21.8027 5.93763V19.3221C21.8027 19.8273 21.6277 20.2549 21.2777 20.6049C20.9277 20.9549 20.5002 21.1299 19.995 21.1299H4.61048ZM4.61048 19.6299H19.995C20.072 19.6299 20.1425 19.5978 20.2065 19.5336C20.2707 19.4696 20.3027 19.3991 20.3027 19.3221V5.93763C20.3027 5.86063 20.2707 5.79013 20.2065 5.72613C20.1425 5.66197 20.072 5.62988 19.995 5.62988H4.61048C4.53348 5.62988 4.46298 5.66197 4.39898 5.72613C4.33482 5.79013 4.30273 5.86063 4.30273 5.93763V19.3221C4.30273 19.3991 4.33482 19.4696 4.39898 19.5336C4.46298 19.5978 4.53348 19.6299 4.61048 19.6299ZM7.43748 17.2451H17.168C17.3808 17.2451 17.5591 17.1734 17.7027 17.0299C17.8462 16.8862 17.918 16.708 17.918 16.4951C17.918 16.2825 17.8462 16.1043 17.7027 15.9606C17.5591 15.8171 17.3808 15.7454 17.168 15.7454H7.43748C7.22465 15.7454 7.0464 15.8171 6.90273 15.9606C6.75923 16.1043 6.68748 16.2825 6.68748 16.4951C6.68748 16.708 6.75923 16.8862 6.90273 17.0299C7.0464 17.1734 7.22465 17.2451 7.43748 17.2451ZM7.43748 13.3799H9.62973C9.84257 13.3799 10.0207 13.308 10.1642 13.1644C10.3079 13.0209 10.3797 12.8427 10.3797 12.6299V8.76463C10.3797 8.5518 10.3079 8.37355 10.1642 8.22988C10.0207 8.08638 9.84257 8.01463 9.62973 8.01463H7.43748C7.22465 8.01463 7.0464 8.08638 6.90273 8.22988C6.75923 8.37355 6.68748 8.5518 6.68748 8.76463V12.6299C6.68748 12.8427 6.75923 13.0209 6.90273 13.1644C7.0464 13.308 7.22465 13.3799 7.43748 13.3799ZM13.322 13.3799H17.168C17.3808 13.3799 17.5591 13.308 17.7027 13.1644C17.8462 13.0209 17.918 12.8427 17.918 12.6299C17.918 12.417 17.8462 12.2389 17.7027 12.0954C17.5591 11.9517 17.3808 11.8799 17.168 11.8799H13.322C13.1092 11.8799 12.931 11.9517 12.7875 12.0954C12.6438 12.2389 12.572 12.417 12.572 12.6299C12.572 12.8427 12.6438 13.0209 12.7875 13.1644C12.931 13.308 13.1092 13.3799 13.322 13.3799ZM13.322 9.51438H17.168C17.3808 9.51438 17.5591 9.44263 17.7027 9.29913C17.8462 9.15547 17.918 8.9773 17.918 8.76463C17.918 8.5518 17.8462 8.37355 17.7027 8.22988C17.5591 8.08638 17.3808 8.01463 17.168 8.01463H13.322C13.1092 8.01463 12.931 8.08638 12.7875 8.22988C12.6438 8.37355 12.572 8.5518 12.572 8.76463C12.572 8.9773 12.6438 9.15547 12.7875 9.29913C12.931 9.44263 13.1092 9.51438 13.322 9.51438Z" fill="#A3A1A1"/>
</g>
</svg>
