<svg width="25" height="25" viewBox="0 0 25 25" fill="none" xmlns="http://www.w3.org/2000/svg">
<mask id="mask0_153_916" style="mask-type:alpha" maskUnits="userSpaceOnUse" x="0" y="0" width="25" height="25">
<rect x="0.302734" y="0.629883" width="24" height="24" fill="#D9D9D9"/>
</mask>
<g mask="url(#mask0_153_916)">
<path d="M4.61048 21.1299C4.10532 21.1299 3.67773 20.9549 3.32773 20.6049C2.97773 20.2549 2.80273 19.8273 2.80273 19.3221V5.93763C2.80273 5.43247 2.97773 5.00488 3.32773 4.65488C3.67773 4.30488 4.10532 4.12988 4.61048 4.12988H19.995C20.5002 4.12988 20.9277 4.30488 21.2777 4.65488C21.6277 5.00488 21.8027 5.43247 21.8027 5.93763V19.3221C21.8027 19.8273 21.6277 20.2549 21.2777 20.6049C20.9277 20.9549 20.5002 21.1299 19.995 21.1299H4.61048ZM7.43748 17.2451H17.168C17.3805 17.2451 17.5587 17.1733 17.7025 17.0296C17.8462 16.8858 17.918 16.7076 17.918 16.4949C17.918 16.2824 17.8462 16.1043 17.7025 15.9606C17.5587 15.8171 17.3805 15.7454 17.168 15.7454H7.43748C7.22498 15.7454 7.04682 15.8172 6.90298 15.9609C6.75932 16.1047 6.68748 16.283 6.68748 16.4956C6.68748 16.7081 6.75932 16.8862 6.90298 17.0299C7.04682 17.1734 7.22498 17.2451 7.43748 17.2451ZM7.43748 13.3799H9.62973C9.84223 13.3799 10.0203 13.308 10.164 13.1641C10.3078 13.0205 10.3797 12.8424 10.3797 12.6299V8.76463C10.3797 8.55213 10.3078 8.37397 10.164 8.23013C10.0203 8.08647 9.84223 8.01463 9.62973 8.01463H7.43748C7.22498 8.01463 7.04682 8.08647 6.90298 8.23013C6.75932 8.37397 6.68748 8.55213 6.68748 8.76463V12.6299C6.68748 12.8424 6.75932 13.0205 6.90298 13.1641C7.04682 13.308 7.22498 13.3799 7.43748 13.3799ZM13.322 13.3799H17.168C17.3805 13.3799 17.5587 13.308 17.7025 13.1641C17.8462 13.0203 17.918 12.8421 17.918 12.6296C17.918 12.417 17.8462 12.2389 17.7025 12.0954C17.5587 11.9517 17.3805 11.8799 17.168 11.8799H13.322C13.1095 11.8799 12.9313 11.9518 12.7875 12.0956C12.6438 12.2395 12.572 12.4176 12.572 12.6301C12.572 12.8428 12.6438 13.0209 12.7875 13.1644C12.9313 13.308 13.1095 13.3799 13.322 13.3799ZM13.322 9.51438H17.168C17.3805 9.51438 17.5587 9.44255 17.7025 9.29888C17.8462 9.15505 17.918 8.9768 17.918 8.76413C17.918 8.55163 17.8462 8.37355 17.7025 8.22988C17.5587 8.08638 17.3805 8.01463 17.168 8.01463H13.322C13.1095 8.01463 12.9313 8.08647 12.7875 8.23013C12.6438 8.37397 12.572 8.55222 12.572 8.76488C12.572 8.97738 12.6438 9.15547 12.7875 9.29913C12.9313 9.44263 13.1095 9.51438 13.322 9.51438Z" fill="#2769FF"/>
</g>
</svg>
