<svg width="25" height="25" viewBox="0 0 25 25" fill="none" xmlns="http://www.w3.org/2000/svg">
<mask id="mask0_153_914" style="mask-type:alpha" maskUnits="userSpaceOnUse" x="0" y="0" width="25" height="25">
<rect x="0.525146" y="0.629883" width="24" height="24" fill="#D9D9D9"/>
</mask>
<g mask="url(#mask0_153_914)">
<path d="M5.77515 19.5144C5.56265 19.5144 5.38456 19.4426 5.2409 19.2989C5.09706 19.1551 5.02515 18.9768 5.02515 18.7641C5.02515 18.5516 5.09706 18.3736 5.2409 18.2299C5.38456 18.0864 5.56265 18.0146 5.77515 18.0146H6.8329V10.5529C6.8329 9.20805 7.24798 8.01897 8.07815 6.98563C8.90815 5.9523 9.97381 5.29138 11.2751 5.00288V4.37988C11.2751 4.03272 11.3966 3.73755 11.6394 3.49438C11.8822 3.25138 12.1771 3.12988 12.5239 3.12988C12.8709 3.12988 13.1661 3.25138 13.4096 3.49438C13.6533 3.73755 13.7751 4.03272 13.7751 4.37988V5.00288C15.0765 5.29138 16.1421 5.9523 16.9721 6.98563C17.8023 8.01897 18.2174 9.20805 18.2174 10.5529V18.0146H19.2751C19.4876 18.0146 19.6657 18.0865 19.8094 18.2301C19.9532 18.374 20.0251 18.5522 20.0251 18.7649C20.0251 18.9774 19.9532 19.1555 19.8094 19.2991C19.6657 19.4426 19.4876 19.5144 19.2751 19.5144H5.77515ZM12.5234 22.3221C12.0259 22.3221 11.6006 22.1451 11.2474 21.7911C10.8941 21.4371 10.7174 21.0116 10.7174 20.5144H14.3329C14.3329 21.0132 14.1557 21.4392 13.8014 21.7924C13.4471 22.1456 13.0211 22.3221 12.5234 22.3221Z" fill="#2769FF"/>
</g>
</svg>
