<svg width="25" height="25" viewBox="0 0 25 25" fill="none" xmlns="http://www.w3.org/2000/svg">
<mask id="mask0_181_1142" style="mask-type:alpha" maskUnits="userSpaceOnUse" x="0" y="0" width="25" height="25">
<rect x="0.625" y="0.365234" width="24" height="24" fill="#D9D9D9"/>
</mask>
<g mask="url(#mask0_181_1142)">
<path d="M12.625 18.4789L8.65575 20.2013C8.05325 20.4617 7.48083 20.4119 6.9385 20.0517C6.39617 19.6914 6.125 19.1847 6.125 18.5315V6.19269C6.125 5.68202 6.3 5.24977 6.65 4.89596C7 4.54214 7.42758 4.36523 7.93275 4.36523H17.3173C17.8224 4.36523 18.25 4.54214 18.6 4.89596C18.95 5.24977 19.125 5.68202 19.125 6.19269V18.5315C19.125 19.1847 18.8538 19.6914 18.3115 20.0517C17.7692 20.4119 17.1968 20.4617 16.5943 20.2013L12.625 18.4789Z" fill="#2769FF"/>
</g>
</svg>
