<svg width="24" height="24" viewBox="0 0 24 24" fill="none" xmlns="http://www.w3.org/2000/svg">
<mask id="mask0_180_1059" style="mask-type:alpha" maskUnits="userSpaceOnUse" x="0" y="0" width="24" height="24">
<rect width="24" height="24" fill="#D9D9D9"/>
</mask>
<g mask="url(#mask0_180_1059)">
<path d="M12 18.1137L8.03075 19.836C7.42825 20.0965 6.85583 20.0466 6.3135 19.6864C5.77117 19.3262 5.5 18.8195 5.5 18.1663V5.82746C5.5 5.31678 5.675 4.88454 6.025 4.53072C6.375 4.17691 6.80258 4 7.30775 4H16.6923C17.1974 4 17.625 4.17691 17.975 4.53072C18.325 4.88454 18.5 5.31678 18.5 5.82746V18.1663C18.5 18.8195 18.2288 19.3262 17.6865 19.6864C17.1442 20.0466 16.5718 20.0965 15.9693 19.836L12 18.1137ZM12 16.4341L16.5673 18.4228C16.6699 18.4681 16.7677 18.4584 16.8605 18.3937C16.9535 18.3289 17 18.2413 17 18.1312V5.82746C17 5.74962 16.9679 5.67835 16.9038 5.61365C16.8398 5.54879 16.7692 5.51635 16.6923 5.51635H7.30775C7.23075 5.51635 7.16025 5.54879 7.09625 5.61365C7.03208 5.67835 7 5.74962 7 5.82746V18.1312C7 18.2413 7.0465 18.3289 7.1395 18.3937C7.23233 18.4584 7.33008 18.4681 7.43275 18.4228L12 16.4341Z" fill="#A3A1A1"/>
</g>
</svg>
