<svg width="24" height="25" viewBox="0 0 24 25" fill="none" xmlns="http://www.w3.org/2000/svg">
<mask id="mask0_181_1143" style="mask-type:alpha" maskUnits="userSpaceOnUse" x="0" y="0" width="24" height="25">
<rect y="0.365234" width="24" height="24" fill="#D9D9D9"/>
</mask>
<g mask="url(#mask0_181_1143)">
<path d="M3.09025 12.3652L10.623 19.898C10.8217 20.0967 10.9185 20.3306 10.9135 20.5998C10.9083 20.8691 10.8064 21.1031 10.6078 21.3017C10.4089 21.5004 10.1749 21.5998 9.90575 21.5998C9.63658 21.5998 9.40258 21.5004 9.20375 21.3017L1.53275 13.646C1.35192 13.4652 1.21792 13.2626 1.13075 13.0382C1.04358 12.8139 1 12.5896 1 12.3652C1 12.1409 1.04358 11.9166 1.13075 11.6922C1.21792 11.4679 1.35192 11.2653 1.53275 11.0845L9.20375 3.41325C9.40258 3.21458 9.63917 3.11783 9.9135 3.123C10.1878 3.12817 10.4243 3.23008 10.623 3.42875C10.8217 3.62742 10.921 3.86142 10.921 4.13075C10.921 4.39992 10.8217 4.63383 10.623 4.8325L3.09025 12.3652Z" fill="#191919"/>
</g>
</svg>
