<svg width="25" height="25" viewBox="0 0 25 25" fill="none" xmlns="http://www.w3.org/2000/svg">
<path d="M12.5 14.8064C12.3795 14.8064 12.2673 14.7872 12.1635 14.7487C12.0597 14.7102 11.9609 14.6442 11.8673 14.5507L7.373 10.0564C7.23467 9.91791 7.16384 9.74382 7.1605 9.53416C7.15734 9.32466 7.22817 9.14741 7.373 9.00241C7.518 8.85757 7.69367 8.78516 7.9 8.78516C8.10634 8.78516 8.282 8.85757 8.427 9.00241L12.5 13.0757L16.573 9.00241C16.7115 8.86407 16.8856 8.79324 17.0953 8.78991C17.3048 8.78674 17.482 8.85757 17.627 9.00241C17.7718 9.14741 17.8443 9.32307 17.8443 9.52941C17.8443 9.73574 17.7718 9.91141 17.627 10.0564L13.1328 14.5507C13.0391 14.6442 12.9403 14.7102 12.8365 14.7487C12.7327 14.7872 12.6205 14.8064 12.5 14.8064Z" fill="#191919"/>
</svg>
