<svg width="11" height="6" viewBox="0 0 11 6" fill="none" xmlns="http://www.w3.org/2000/svg">
<path d="M5.52515 5.13965C5.71724 5.13965 5.88108 5.07573 6.02797 4.94299L10.3387 1.10818C10.463 1.00494 10.5251 0.867279 10.5251 0.709953C10.5251 0.390386 10.2427 0.139648 9.86978 0.139649C9.68899 0.139649 9.52515 0.203562 9.40085 0.311723L5.52515 3.76797L1.64944 0.311724C1.5195 0.203562 1.35565 0.139649 1.17486 0.139649C0.807632 0.139649 0.525146 0.390387 0.525146 0.709954C0.525146 0.867279 0.587293 1.00494 0.711587 1.10818L5.02232 4.94299C5.16921 5.07573 5.33306 5.13473 5.52515 5.13965Z" fill="#555353"/>
</svg>
