<svg width="25" height="24" viewBox="0 0 25 24" fill="none" xmlns="http://www.w3.org/2000/svg">
<mask id="mask0_194_537" style="mask-type:alpha" maskUnits="userSpaceOnUse" x="0" y="0" width="25" height="24">
<rect x="0.5" width="24" height="24" fill="#D9D9D9"/>
</mask>
<g mask="url(#mask0_194_537)">
<path d="M11.0808 14.1463L8.75775 11.823C8.61925 11.6847 8.44517 11.6138 8.2355 11.6105C8.026 11.6073 7.84875 11.6782 7.70375 11.823C7.55892 11.968 7.4865 12.1437 7.4865 12.35C7.4865 12.5563 7.55892 12.732 7.70375 12.877L10.448 15.6212C10.6288 15.8019 10.8398 15.8923 11.0808 15.8923C11.3218 15.8923 11.5327 15.8019 11.7135 15.6212L17.277 10.0578C17.4153 9.91925 17.4862 9.74517 17.4895 9.5355C17.4927 9.326 17.4218 9.14875 17.277 9.00375C17.132 8.85892 16.9563 8.7865 16.75 8.7865C16.5437 8.7865 16.368 8.85892 16.223 9.00375L11.0808 14.1463ZM12.5017 21.5C11.1877 21.5 9.95267 21.2507 8.7965 20.752C7.64033 20.2533 6.63467 19.5766 5.7795 18.7218C4.92433 17.8669 4.24725 16.8617 3.74825 15.706C3.24942 14.5503 3 13.3156 3 12.0017C3 10.6877 3.24933 9.45267 3.748 8.2965C4.24667 7.14033 4.92342 6.13467 5.77825 5.2795C6.63308 4.42433 7.63833 3.74725 8.794 3.24825C9.94967 2.74942 11.1844 2.5 12.4983 2.5C13.8123 2.5 15.0473 2.74933 16.2035 3.248C17.3597 3.74667 18.3653 4.42342 19.2205 5.27825C20.0757 6.13308 20.7528 7.13833 21.2518 8.294C21.7506 9.44967 22 10.6844 22 11.9983C22 13.3123 21.7507 14.5473 21.252 15.7035C20.7533 16.8597 20.0766 17.8653 19.2218 18.7205C18.3669 19.5757 17.3617 20.2528 16.206 20.7518C15.0503 21.2506 13.8156 21.5 12.5017 21.5Z" fill="#2769FF"/>
</g>
</svg>
