<svg width="13" height="13" viewBox="0 0 13 13" fill="none" xmlns="http://www.w3.org/2000/svg">
<mask id="mask0_229_1415" style="mask-type:alpha" maskUnits="userSpaceOnUse" x="0" y="0" width="13" height="13">
<rect x="0.525146" y="0.5" width="12" height="12" fill="#D9D9D9"/>
</mask>
<g mask="url(#mask0_229_1415)">
<path d="M10.48 6.5L6.71364 2.73363C6.61431 2.63429 6.56594 2.51604 6.56852 2.37887C6.5711 2.24171 6.62206 2.12342 6.72139 2.024C6.82073 1.92467 6.93898 1.875 7.07614 1.875C7.21331 1.875 7.3316 1.92467 7.43102 2.024L11.2589 5.85963C11.3492 5.95004 11.4162 6.05133 11.4598 6.1635C11.5034 6.27567 11.5253 6.38783 11.5253 6.5C11.5253 6.61217 11.5034 6.72433 11.4598 6.8365C11.4162 6.94867 11.3492 7.04996 11.2589 7.14038L7.42327 10.976C7.32394 11.0753 7.20698 11.1237 7.07239 11.1211C6.93773 11.1185 6.82073 11.0676 6.72139 10.9683C6.62206 10.8689 6.57239 10.7507 6.57239 10.6135C6.57239 10.4763 6.62206 10.358 6.72139 10.2586L10.48 6.5Z" fill="#A3A1A1"/>
</g>
</svg>
