<svg width="25" height="24" viewBox="0 0 25 24" fill="none" xmlns="http://www.w3.org/2000/svg">
<mask id="mask0_330_1337" style="mask-type:alpha" maskUnits="userSpaceOnUse" x="0" y="0" width="25" height="24">
<rect x="0.5" width="24" height="24" fill="#D9D9D9"/>
</mask>
<g mask="url(#mask0_330_1337)">
<path d="M8.9 16.6538L12.5 13.0538L16.1 16.6538L17.1538 15.6L13.5538 12L17.1538 8.4L16.1 7.34625L12.5 10.9462L8.9 7.34625L7.84625 8.4L11.4462 12L7.84625 15.6L8.9 16.6538ZM12.5017 21.5C11.1877 21.5 9.95267 21.2507 8.7965 20.752C7.64033 20.2533 6.63467 19.5766 5.7795 18.7218C4.92433 17.8669 4.24725 16.8617 3.74825 15.706C3.24942 14.5503 3 13.3156 3 12.0017C3 10.6877 3.24933 9.45267 3.748 8.2965C4.24667 7.14033 4.92342 6.13467 5.77825 5.2795C6.63308 4.42433 7.63833 3.74725 8.794 3.24825C9.94967 2.74942 11.1844 2.5 12.4983 2.5C13.8123 2.5 15.0473 2.74933 16.2035 3.248C17.3597 3.74667 18.3653 4.42342 19.2205 5.27825C20.0757 6.13308 20.7528 7.13833 21.2518 8.294C21.7506 9.44967 22 10.6844 22 11.9983C22 13.3123 21.7507 14.5473 21.252 15.7035C20.7533 16.8597 20.0766 17.8653 19.2218 18.7205C18.3669 19.5757 17.3617 20.2528 16.206 20.7518C15.0503 21.2506 13.8156 21.5 12.5017 21.5Z" fill="#DF3131"/>
</g>
</svg>
