<svg width="12" height="13" viewBox="0 0 12 13" fill="none" xmlns="http://www.w3.org/2000/svg">
<mask id="mask0_834_8622" style="mask-type:alpha" maskUnits="userSpaceOnUse" x="0" y="0" width="12" height="13">
<rect y="0.629883" width="12" height="12" fill="#D9D9D9"/>
</mask>
<g mask="url(#mask0_834_8622)">
<path d="M9.95487 6.62988L6.1885 2.86351C6.08916 2.76417 6.04079 2.64592 6.04337 2.50876C6.04596 2.37159 6.09691 2.2533 6.19625 2.15388C6.29558 2.05455 6.41383 2.00488 6.551 2.00488C6.68816 2.00488 6.80646 2.05455 6.90587 2.15388L10.7337 5.98951C10.8241 6.07992 10.891 6.18122 10.9346 6.29338C10.9783 6.40555 11.0001 6.51772 11.0001 6.62988C11.0001 6.74205 10.9783 6.85422 10.9346 6.96638C10.891 7.07855 10.8241 7.17984 10.7337 7.27026L6.89812 11.1059C6.79879 11.2052 6.68183 11.2536 6.54725 11.251C6.41258 11.2484 6.29558 11.1975 6.19625 11.0981C6.09691 10.9988 6.04725 10.8806 6.04725 10.7434C6.04725 10.6062 6.09691 10.4879 6.19625 10.3885L9.95487 6.62988Z" fill="#D6D4D4"/>
</g>
</svg>
