<svg width="24" height="25" viewBox="0 0 24 25" fill="none" xmlns="http://www.w3.org/2000/svg">
<path d="M9.51921 16.1152C7.81154 16.1152 6.36538 15.523 5.18071 14.3385C3.99621 13.1538 3.40396 11.7077 3.40396 10C3.40396 8.29233 3.99621 6.84617 5.18071 5.6615C6.36538 4.477 7.81154 3.88475 9.51921 3.88475C11.2269 3.88475 12.673 4.477 13.8577 5.6615C15.0422 6.84617 15.6345 8.29233 15.6345 10C15.6345 10.7142 15.5146 11.3963 15.275 12.0463C15.0351 12.6962 14.7152 13.2616 14.3152 13.7423L20.0692 19.4962C20.2077 19.6346 20.2785 19.8086 20.2817 20.0182C20.2849 20.2279 20.214 20.4052 20.0692 20.55C19.9244 20.6948 19.7487 20.7673 19.5422 20.7673C19.3359 20.7673 19.1603 20.6948 19.0155 20.55L13.2615 14.796C12.7615 15.2088 12.1865 15.5319 11.5365 15.7653C10.8865 15.9986 10.214 16.1152 9.51921 16.1152ZM9.51921 14.6155C10.8077 14.6155 11.899 14.1683 12.7932 13.274C13.6875 12.3798 14.1347 11.2885 14.1347 10C14.1347 8.7115 13.6875 7.62017 12.7932 6.726C11.899 5.83167 10.8077 5.3845 9.51921 5.3845C8.23071 5.3845 7.13938 5.83167 6.24521 6.726C5.35088 7.62017 4.90371 8.7115 4.90371 10C4.90371 11.2885 5.35088 12.3798 6.24521 13.274C7.13938 14.1683 8.23071 14.6155 9.51921 14.6155Z" fill="#191919"/>
</svg>
