<svg width="14" height="14" viewBox="0 0 14 14" fill="none" xmlns="http://www.w3.org/2000/svg">
<path d="M6.27515 7.64941H1.27515C1.06265 7.64941 0.884563 7.5775 0.740897 7.43366C0.597063 7.28983 0.525146 7.11166 0.525146 6.89916C0.525146 6.6865 0.597063 6.50841 0.740897 6.36491C0.884563 6.22125 1.06265 6.14941 1.27515 6.14941H6.27515V1.14941C6.27515 0.936914 6.34706 0.758831 6.4909 0.615164C6.63473 0.471331 6.8129 0.399414 7.0254 0.399414C7.23806 0.399414 7.41615 0.471331 7.55965 0.615164C7.70331 0.758831 7.77515 0.936914 7.77515 1.14941V6.14941H12.7751C12.9876 6.14941 13.1657 6.22133 13.3094 6.36516C13.4532 6.509 13.5251 6.68716 13.5251 6.89966C13.5251 7.11233 13.4532 7.29041 13.3094 7.43391C13.1657 7.57758 12.9876 7.64941 12.7751 7.64941H7.77515V12.6494C7.77515 12.8619 7.70323 13.04 7.5594 13.1837C7.41556 13.3275 7.2374 13.3994 7.0249 13.3994C6.81223 13.3994 6.63415 13.3275 6.49065 13.1837C6.34698 13.04 6.27515 12.8619 6.27515 12.6494V7.64941Z" fill="#191919"/>
</svg>
