<svg width="11" height="11" viewBox="0 0 11 11" fill="none" xmlns="http://www.w3.org/2000/svg">
<path d="M5.23802 6.66729L1.47785 10.4272C1.31008 10.5951 1.1067 10.6772 0.867705 10.6733C0.628514 10.6696 0.425038 10.5839 0.257275 10.4162C0.0895133 10.2484 0.0056322 10.0431 0.0056322 9.80023C0.0056322 9.55737 0.0895133 9.35206 0.257275 9.1843L4.00615 5.43542L0.246271 1.70421C0.0783162 1.53645 -0.00373089 1.33114 0.000130147 1.08828C0.00379813 0.845613 0.0895133 0.640398 0.257275 0.472636C0.425038 0.304681 0.630348 0.220703 0.873207 0.220703C1.11607 0.220703 1.32138 0.304681 1.48914 0.472636L5.23802 4.23252L8.96923 0.472636C9.13699 0.304681 9.34037 0.220703 9.57937 0.220703C9.81856 0.220703 10.022 0.304681 10.1898 0.472636C10.3695 0.652175 10.4594 0.860381 10.4594 1.09726C10.4594 1.33413 10.3695 1.53645 10.1898 1.70421L6.44092 5.43542L10.2008 9.19559C10.3688 9.36336 10.4527 9.56674 10.4527 9.80573C10.4527 10.0449 10.3688 10.2484 10.2008 10.4162C10.0213 10.5959 9.81306 10.6858 9.57618 10.6858C9.33931 10.6858 9.13699 10.5959 8.96923 10.4162L5.23802 6.66729Z" fill="#FEFEFE"/>
</svg>
